<svg width="38" height="39" viewBox="0 0 38 39" fill="none" xmlns="http://www.w3.org/2000/svg">
<path fill-rule="evenodd" clip-rule="evenodd" d="M19 0L38 38H0L19 0Z" fill="#2A355F"/>
<path d="M4.66371 18.7822H2.54359L2.37855 5.51562H4.84145L4.66371 18.7822ZM2.28969 22.8193C2.28969 22.4385 2.40395 22.1211 2.63246 21.8672C2.86944 21.6048 3.21645 21.4736 3.67348 21.4736C4.13051 21.4736 4.47751 21.6048 4.71449 21.8672C4.95147 22.1211 5.06996 22.4385 5.06996 22.8193C5.06996 23.2002 4.95147 23.5176 4.71449 23.7715C4.47751 24.0169 4.13051 24.1396 3.67348 24.1396C3.21645 24.1396 2.86944 24.0169 2.63246 23.7715C2.40395 23.5176 2.28969 23.2002 2.28969 22.8193Z" transform="translate(16 7)" fill="white"/>
</svg>
