<svg width="20" height="20" viewBox="0 0 20 20" fill="none" xmlns="http://www.w3.org/2000/svg">
<path fill-rule="evenodd" clip-rule="evenodd" d="M1.04004 0C0.46582 0 0 0.46582 0 1.04004V11.0078H8.12012V0H1.04004ZM18.0977 0H11.0176V6.62012H19.1377V1.04004C19.1377 0.958984 19.1289 0.879883 19.1113 0.804688C19.1045 0.774414 19.0967 0.745117 19.0869 0.716797C18.9502 0.300781 18.5586 0 18.0977 0ZM0 13.3799H8.12012V20H1.04004C0.803711 20 0.585938 19.9219 0.411133 19.7891C0.28125 19.6904 0.175781 19.5615 0.103516 19.4131C0.0371094 19.2754 0 19.1221 0 18.96V13.3799ZM19.1377 8.99219H11.0176V20H18.0977C18.6719 20 19.1377 19.5342 19.1377 18.96V8.99219Z" fill="white" fill-opacity="0.3"/>
</svg>
