<svg width="20" height="20" viewBox="0 0 20 20" fill="none" xmlns="http://www.w3.org/2000/svg">
<path fill-rule="evenodd" clip-rule="evenodd" d="M0.774414 0.0341797C0.678711 0.0595703 0.588867 0.0976562 0.505859 0.147461C0.203125 0.329102 0 0.661133 0 1.04004V11.0078H8.12012V0H1.04004C0.948242 0 0.859375 0.0117188 0.774414 0.0341797ZM18.0977 0H11.0176V6.62012H19.1377V1.04004C19.1377 0.46582 18.6719 0 18.0977 0ZM0 13.3799H8.12012V20H1.04004C0.46582 20 0 19.5342 0 18.96V13.3799ZM19.1377 8.99219H11.0176V20H18.0977C18.6719 20 19.1377 19.5342 19.1377 18.96V8.99219Z" fill="#FF5704"/>
</svg>
