<svg width="26" height="25" viewBox="0 0 26 25" fill="none" xmlns="http://www.w3.org/2000/svg">
<path fill-rule="evenodd" clip-rule="evenodd" d="M23.0259 22.9951H7.48414V15.0987C6.58433 13.9973 5.95959 12.8319 5.52793 11.7745C5.51105 11.7327 5.49514 11.6916 5.47858 11.6504V17.5476H2.00586V2.00586H17.5478V5.44755H7.35955C7.79281 5.99689 8.42929 6.72146 9.19518 7.45295H23.0259V22.9951ZM19.5527 5.44709V0H0V19.5526H5.47812V25H25.0309V5.44709H19.5527ZM5.8658 5.96777C5.8658 5.96777 5.64057 14.9935 14.1442 16.6615C14.3813 16.7078 14.5978 16.7346 14.798 16.7462V18.9503C14.798 19.1989 14.9363 19.2532 15.1051 19.0707L19.3234 14.5209C19.4924 14.3387 19.4938 14.0389 19.3273 13.8548L15.1015 9.19388C14.9345 9.00996 14.798 9.06269 14.798 9.31091V11.492C14.5978 11.474 14.3813 11.4637 14.1442 11.4637C9.84831 11.4637 5.8658 5.96777 5.8658 5.96777Z" fill="white" fill-opacity="0.3"/>
</svg>
