<svg width="36" height="18" viewBox="0 0 36 18" fill="none" xmlns="http://www.w3.org/2000/svg">
<path fill-rule="evenodd" clip-rule="evenodd" d="M31.3926 16.7718C31.4784 16.6822 31.5394 16.5683 31.5681 16.4466L35.2013 0.858053H35.1999C35.2482 0.648698 35.195 0.417693 35.0606 0.252007H35.0595C34.9062 0.0644871 34.652 -0.0314748 34.4158 0.00925857C34.4041 0.0110934 34.3924 0.0140291 34.3809 0.0167814L18.5225 2.79766C18.2773 2.84096 18.0624 3.03105 17.9858 3.27233C17.9093 3.51343 17.9741 3.79562 18.148 3.97709L21.6533 7.63722C16.9056 11.0584 10.465 11.5737 5.12424 8.3684C3.59686 7.45153 2.29811 6.29687 1.21338 4.98625C1.01341 4.7424 0.640302 4.66754 0.364481 4.81579C0.0886605 4.96405 -0.0610502 5.32 0.0236238 5.62569C1.13898 9.69113 3.73342 13.3516 7.58627 15.6641C14.048 19.5425 22.0244 18.4332 27.2766 13.5074L30.4066 16.7791C30.5349 16.9125 30.7172 16.9901 30.9006 16.9895C31.084 16.9895 31.2656 16.9097 31.393 16.7754L31.3926 16.7718Z" transform="translate(35.2178 18) rotate(-180)" fill="white"/>
</svg>
