<svg width="59" height="69" viewBox="0 0 59 69" fill="none" xmlns="http://www.w3.org/2000/svg">
<path fill-rule="evenodd" clip-rule="evenodd" d="M22.0779 5.68502L26.0033 0H0.041871L9.57989 13.8748L0 27.7491H26.0033L22.0779 22.0641H10.7685L16.4234 13.8748L10.7685 5.68502H22.0779Z" transform="translate(16.3008 20.4385)" fill="white"/>
<path fill-rule="evenodd" clip-rule="evenodd" d="M29.3021 0L0 17.1564V51.4692L29.303 68.6256L58.6056 51.4692V17.1564L29.3035 0H29.3021ZM5.60547 48.1874V20.4388L29.3025 6.56445L52.9991 20.4388V48.1874L29.3025 62.0622L5.60547 48.1874Z" fill="white"/>
<g opacity="0.4">
<path fill-rule="evenodd" clip-rule="evenodd" d="M3.9254 0L0 5.68502H3.8921L4.81611 0H3.9254Z" transform="translate(23.1436 42.5029)" fill="#2A355F"/>
<path fill-rule="evenodd" clip-rule="evenodd" d="M6.84352 0H0L2.02979 2.9395L7.76183 1.32982L6.84352 0Z" transform="translate(20.2256 26.124)" fill="#2A355F"/>
<path fill-rule="evenodd" clip-rule="evenodd" d="M7.61623 0L0 4.45943L3.22739 9.13406L13.2217 3.28208L7.61623 0Z" transform="translate(45.3828 48.1875)" fill="#2A355F"/>
</g>
</svg>
