<svg width="39" height="29" viewBox="0 0 39 29" fill="none" xmlns="http://www.w3.org/2000/svg">
<g opacity="0.3">
<path fill-rule="evenodd" clip-rule="evenodd" d="M4.5 9C6.98528 9 9 6.98528 9 4.5C9 2.01472 6.98528 0 4.5 0C2.01472 0 0 2.01472 0 4.5C0 6.98528 2.01472 9 4.5 9Z" transform="translate(15)" fill="white"/>
<path d="M0 4.55273V0H30.7856V4.55273" transform="translate(4.5 15)" stroke="white" stroke-width="2" stroke-linecap="square"/>
<path d="M1.5 0.5V21.5" transform="translate(18 5)" stroke="white" stroke-width="2" stroke-linecap="square"/>
<path fill-rule="evenodd" clip-rule="evenodd" d="M4.5 9C6.98528 9 9 6.98528 9 4.5C9 2.01472 6.98528 0 4.5 0C2.01472 0 0 2.01472 0 4.5C0 6.98528 2.01472 9 4.5 9Z" transform="translate(15 20)" fill="white"/>
<path fill-rule="evenodd" clip-rule="evenodd" d="M4.5 9C6.98528 9 9 6.98528 9 4.5C9 2.01472 6.98528 0 4.5 0C2.01472 0 0 2.01472 0 4.5C0 6.98528 2.01472 9 4.5 9Z" transform="translate(30 20)" fill="white"/>
<path fill-rule="evenodd" clip-rule="evenodd" d="M4.5 9C6.98528 9 9 6.98528 9 4.5C9 2.01472 6.98528 0 4.5 0C2.01472 0 0 2.01472 0 4.5C0 6.98528 2.01472 9 4.5 9Z" transform="translate(0 20)" fill="white"/>
</g>
</svg>
