<svg width="98" height="105" viewBox="0 0 98 105" fill="none" xmlns="http://www.w3.org/2000/svg">
<path fill-rule="evenodd" clip-rule="evenodd" d="M0 15C0 6.71573 6.71573 0 15 0C23.2843 0 30 6.71573 30 15C30 23.2843 23.2843 30 15 30C6.71573 30 0 23.2843 0 15Z" transform="translate(0 36)" fill="#2A355F"/>
<path d="M0.714286 40.7143L73.5714 0.714286" transform="translate(15.1426 9.57129)" stroke="#2A355F" stroke-width="8" stroke-linecap="square"/>
<path d="M0.714286 0.714286L72.1429 39.2857" transform="translate(15.1426 49.5713)" stroke="#2A355F" stroke-width="8" stroke-linecap="square"/>
<path fill-rule="evenodd" clip-rule="evenodd" d="M0 15C0 6.71573 6.71573 0 15 0C23.2843 0 30 6.71573 30 15C30 23.2843 23.2843 30 15 30C6.71573 30 0 23.2843 0 15Z" transform="translate(68)" fill="#2A355F"/>
<path fill-rule="evenodd" clip-rule="evenodd" d="M0 15C0 6.71573 6.71573 0 15 0C23.2843 0 30 6.71573 30 15C30 23.2843 23.2843 30 15 30C6.71573 30 0 23.2843 0 15Z" transform="translate(68 75)" fill="#2A355F"/>
</svg>
