<svg width="58" height="58" viewBox="0 0 58 58" fill="none" xmlns="http://www.w3.org/2000/svg">
<path fill-rule="evenodd" clip-rule="evenodd" d="M0.687559 20.2782C0.0283123 20.6587 -0.195047 21.4928 0.185445 22.1519L4.65032 29.8851C4.20289 28.1764 3.75173 26.4685 3.27945 24.7672L1.57799 21.2206C1.57799 21.2206 37.0688 11.6945 42.4927 10.2341C42.5914 10.1848 42.6929 10.1374 42.7977 10.0963L37.3648 0.686502C36.9843 0.0272548 36.1475 -0.194684 35.4884 0.185808L0.687559 20.2782Z" fill="white"/>
<path fill-rule="evenodd" clip-rule="evenodd" d="M1.01811 10.4483C0.282873 10.6453 -0.149463 11.3939 0.0476183 12.1291L5.3374 31.8705C5.5343 32.6057 6.28286 33.0379 7.01809 32.841L45.8341 22.4402C46.5694 22.2433 47.0042 21.4939 46.8073 20.7588L41.5175 1.01728C41.3206 0.282215 40.5692 -0.149412 39.834 0.0476699L1.01811 10.4483Z" transform="translate(4.14258 11.2451)" fill="white"/>
<mask id="mask0" mask-type="alpha" maskUnits="userSpaceOnUse" x="23" y="40" width="35" height="18">
<path fill-rule="evenodd" clip-rule="evenodd" d="M0 0H34.7079V17.418H0V0Z" transform="translate(23.082 40.2451)" fill="white"/>
</mask>
<g mask="url(#mask0)">
<path fill-rule="evenodd" clip-rule="evenodd" d="M30.9385 16.2295C31.023 16.1428 31.0832 16.0326 31.1114 15.9149L34.6921 0.83031H34.6906C34.7382 0.627724 34.6859 0.404188 34.5534 0.243859H34.5523C34.4012 0.0624021 34.1507 -0.0304571 33.9179 0.00895922C33.9064 0.0107347 33.8949 0.0135755 33.8835 0.0162388L18.2546 2.7072C18.0129 2.7491 17.8011 2.93305 17.7257 3.16653C17.6502 3.39983 17.7141 3.6729 17.8854 3.8485L21.3401 7.39029C16.6611 10.7009 10.3136 11.1995 5.05011 8.09783C3.54483 7.21061 2.26486 6.09328 1.19583 4.82503C0.998747 4.58906 0.631039 4.51662 0.359208 4.66009C0.0873779 4.80355 -0.060167 5.14799 0.023282 5.4438C1.1225 9.37779 3.67941 12.9199 7.47652 15.1576C13.8447 18.9107 21.7058 17.8372 26.882 13.0707L29.9667 16.2366C30.0931 16.3657 30.2728 16.4408 30.4536 16.4402C30.6343 16.4402 30.8133 16.363 30.9388 16.233L30.9385 16.2295Z" transform="translate(23.082 40.2451)" fill="white"/>
</g>
</svg>
