<svg width="20" height="20" viewBox="0 0 20 20" fill="none" xmlns="http://www.w3.org/2000/svg">
<path fill-rule="evenodd" clip-rule="evenodd" d="M8.50977 0C8.35449 0 8.22266 0.114258 8.2002 0.268555L7.86816 2.62695C7.31934 2.78809 6.79492 3.00781 6.30371 3.28027L4.40137 1.83789C4.27734 1.74316 4.10254 1.75586 3.99316 1.86523L1.875 3.9834C1.76562 4.09277 1.75293 4.26758 1.84668 4.3916L3.28418 6.30176C3.0127 6.79102 2.79297 7.31348 2.63184 7.86133L0.269531 8.18652C0.115234 8.20801 0 8.33984 0 8.49609V11.4902C0 11.6455 0.114258 11.7773 0.268555 11.7998L2.59473 12.1279C2.75098 12.6953 2.96973 13.2373 3.24414 13.7441L1.83789 15.5986C1.74316 15.7227 1.75586 15.8975 1.86523 16.0068L3.9834 18.125C4.09277 18.2344 4.26758 18.2471 4.3916 18.1533L6.20801 16.7861C6.72949 17.085 7.29004 17.3252 7.87891 17.4961L8.18652 19.7305C8.19434 19.7832 8.21387 19.8311 8.24316 19.8721C8.25684 19.8906 8.27246 19.9072 8.29004 19.9219L8.33203 19.9541C8.37988 19.9834 8.43652 20 8.49609 20H11.4902C11.5195 20 11.5479 19.9961 11.5752 19.9883L11.6318 19.9658L11.6748 19.9395C11.71 19.9131 11.7393 19.8799 11.7607 19.8418C11.7803 19.8086 11.7939 19.7715 11.7998 19.7314L12.1123 17.5156C12.2158 17.4863 12.3184 17.4551 12.4199 17.4219C12.5303 17.3857 12.6396 17.3477 12.748 17.3066C13.1172 17.167 13.4727 17 13.8125 16.8086L15.5986 18.1621C15.7227 18.2568 15.8975 18.2441 16.0068 18.1348L18.125 16.0166C18.2344 15.9072 18.2471 15.7324 18.1533 15.6084L16.7881 13.7949C16.9883 13.4307 17.1602 13.0479 17.3008 12.6514C17.3389 12.5459 17.374 12.4385 17.4072 12.3301L17.4668 12.125L19.7305 11.8135C19.7949 11.8047 19.8516 11.7764 19.8965 11.7363C19.9609 11.6787 20 11.5957 20 11.5039V8.50977C20 8.35449 19.8857 8.22266 19.7314 8.2002L17.4326 7.87598C17.2666 7.30762 17.0371 6.76562 16.7529 6.25977L18.1621 4.40137C18.2568 4.27734 18.2441 4.10254 18.1348 3.99316L16.0166 1.875C15.957 1.81543 15.8779 1.78418 15.7979 1.7832C15.7314 1.7832 15.665 1.80371 15.6084 1.84668L13.7266 3.2627C13.5918 3.18848 13.4551 3.11816 13.3164 3.05176C13.2061 3 13.0947 2.9502 12.9814 2.90332C12.707 2.79004 12.4248 2.69238 12.1357 2.61035L11.8135 0.269531C11.8086 0.231445 11.7959 0.195312 11.7783 0.162109L11.7617 0.134766L11.7441 0.111328C11.7285 0.0927734 11.71 0.0761719 11.6904 0.0615234L11.6514 0.0361328L11.6152 0.0205078C11.5801 0.00683594 11.543 0 11.5039 0H8.50977ZM12.4746 10.0596C12.4746 11.4277 11.3779 12.5312 10.0312 12.5312C8.68457 12.5312 7.58691 11.4277 7.58691 10.0596C7.58691 8.69238 8.68457 7.58887 10.0312 7.58887C11.3779 7.58887 12.4746 8.69238 12.4746 10.0596Z" fill="#FF5704"/>
</svg>
