<svg width="20" height="20" viewBox="0 0 20 20" fill="none" xmlns="http://www.w3.org/2000/svg">
<path fill-rule="evenodd" clip-rule="evenodd" d="M8.50977 0C8.35449 0 8.22266 0.114258 8.2002 0.268555L7.86816 2.62695C7.31934 2.78809 6.79492 3.00781 6.30371 3.28027L4.40137 1.83789C4.27734 1.74316 4.10254 1.75586 3.99316 1.86523L1.875 3.9834C1.76562 4.09277 1.75293 4.26758 1.84668 4.3916L3.28418 6.30176C3.0127 6.79102 2.79297 7.31348 2.63184 7.86133L0.269531 8.18652C0.194336 8.19727 0.12793 8.23438 0.0800781 8.28711C0.0302734 8.34277 0 8.41602 0 8.49609V11.4902C0 11.6455 0.114258 11.7773 0.268555 11.7998L2.59473 12.1279C2.68848 12.4688 2.80566 12.8008 2.94336 13.1211C3.03418 13.334 3.13477 13.542 3.24414 13.7441L1.83789 15.5986C1.74316 15.7227 1.75586 15.8975 1.86523 16.0068L3.9834 18.125C4.09277 18.2344 4.26758 18.2471 4.3916 18.1533L6.20801 16.7861C6.72949 17.085 7.29004 17.3252 7.87891 17.4961L8.18652 19.7305C8.20801 19.8848 8.33984 20 8.49609 20H11.4902C11.5791 20 11.6602 19.9629 11.7168 19.9023C11.7598 19.8564 11.79 19.7979 11.7998 19.7314L12.1123 17.5156C12.7119 17.3477 13.2812 17.1084 13.8125 16.8086L15.5986 18.1621C15.7227 18.2568 15.8975 18.2441 16.0068 18.1348L18.125 16.0166C18.1895 15.9521 18.2207 15.8643 18.2158 15.7773C18.2119 15.7178 18.1914 15.6592 18.1533 15.6084L16.7881 13.7949C16.9219 13.5518 17.043 13.2998 17.1504 13.041C17.2744 12.7441 17.3799 12.4385 17.4668 12.125L19.7305 11.8135C19.8848 11.792 20 11.6602 20 11.5039V8.50977C20 8.35449 19.8857 8.22266 19.7314 8.2002L17.4326 7.87598C17.2666 7.30762 17.0371 6.76562 16.7529 6.25977L18.1621 4.40137C18.2568 4.27734 18.2441 4.10254 18.1348 3.99316L16.0166 1.875C15.9072 1.76562 15.7324 1.75293 15.6084 1.84668L13.7266 3.2627C13.2275 2.98828 12.6943 2.76855 12.1357 2.61035L11.8135 0.269531C11.8105 0.248047 11.8057 0.227539 11.7998 0.208008C11.792 0.185547 11.7812 0.164062 11.7686 0.144531C11.7598 0.130859 11.75 0.118164 11.7393 0.106445L11.7002 0.0693359L11.6865 0.0595703L11.6543 0.0380859L11.6211 0.0224609C11.585 0.0078125 11.5449 0 11.5039 0H8.50977ZM11.5342 12.0088C11.1191 12.3359 10.5977 12.5312 10.0312 12.5312C8.68457 12.5312 7.58691 11.4277 7.58691 10.0596C7.58691 8.69238 8.68457 7.58887 10.0312 7.58887C11.3779 7.58887 12.4746 8.69238 12.4746 10.0596C12.4746 10.8525 12.1064 11.5566 11.5342 12.0088Z" fill="white" fill-opacity="0.3"/>
</svg>
