<svg width="91" height="100" viewBox="0 0 91 100" fill="none" xmlns="http://www.w3.org/2000/svg">
<path fill-rule="evenodd" clip-rule="evenodd" d="M35.9473 0C35.791 0 35.6592 0.114258 35.6377 0.268555L34.2959 9.88672C14.5996 14.8301 0 32.8271 0 54.2715C0 79.5264 20.249 100 45.2266 100C70.2041 100 90.4531 79.5264 90.4531 54.2715C90.4531 32.8438 75.877 14.8584 56.2041 9.89844L54.8945 0.269531C54.873 0.115234 54.7412 0 54.585 0H35.9473ZM39.7178 25.6953C39.4307 25.6953 39.1982 25.9277 39.1982 26.2148V60.4316L39.0498 60.4307L39.1982 60.4834L71.251 72.1514C71.5215 72.249 71.8193 72.1104 71.918 71.8398L75.6855 61.4893C75.7832 61.2188 75.6445 60.9209 75.374 60.8223L51.2539 52.0625V26.2148C51.2539 25.9277 51.0215 25.6953 50.7344 25.6953H39.7178ZM51.2539 52.0625L51.165 52.0303L51.1953 60.4736L39.1982 60.4316V60.4834H51.2539V52.0625Z" fill="#2A355F"/>
</svg>
