<svg width="108" height="121" viewBox="0 0 108 121" fill="none" xmlns="http://www.w3.org/2000/svg">
<path fill-rule="evenodd" clip-rule="evenodd" d="M73.3545 38.9922C92.3486 38.3682 108 29.7051 108 19.5166C108 8.9375 91.1318 0 71.165 0C51.1973 0 34.3291 8.9375 34.3291 19.5166C34.3291 21.9482 35.2305 24.29 36.8467 26.459C52.8184 26.4619 66.4121 31.4688 73.3545 38.9922ZM38.2861 91.1621C58.6025 91.1621 68.752 84.9023 73.6709 79.7236V86.3047C73.6709 88.127 73.1445 89.9014 72.1885 91.3018C69.0527 95.8945 60.4775 103.601 38.2861 103.601C15.9736 103.601 5.95898 95.8115 1.97559 91.1689C0.719727 89.7061 0 87.6494 0 85.5264V78.7637C5.29785 84.0156 16.5088 91.1621 38.2861 91.1621ZM0 101.734V95.8311C5.29785 101.083 16.5088 108.229 38.2861 108.229C58.6025 108.229 68.752 101.97 73.6709 96.791V102.511C73.6709 104.334 73.1445 106.108 72.1885 107.509C69.0527 112.102 60.4775 119.807 38.2861 119.807C15.9736 119.807 5.95898 112.019 1.97559 107.375C1.4375 106.749 0.998047 106.014 0.671875 105.211C0.44043 104.643 0.265625 104.04 0.152344 103.418C0.0517578 102.868 0 102.304 0 101.734ZM0 50.6035C0 40.0244 16.8691 31.0879 36.8359 31.0879C56.8027 31.0879 73.6709 40.0244 73.6709 50.6035C73.6709 61.1826 56.8027 70.1201 36.8359 70.1201C16.8691 70.1201 0 61.1826 0 50.6035ZM78.2998 59.8945V69.2373C78.2998 69.6328 78.2783 70.0254 78.2451 70.416H78.2998V72.3232C96.3008 71.1357 103.665 64.3926 106.518 60.2148C107.473 58.8145 108 57.04 108 55.2178V48.6367C103.563 53.3066 94.8643 58.8506 78.2998 59.8945ZM36.8359 74.748C53.0654 74.748 66.832 69.5771 73.6709 61.8506V69.2373C73.6709 71.0596 73.1445 72.834 72.1885 74.2354C69.0527 78.8271 60.4775 86.5332 38.2861 86.5332C15.9736 86.5332 5.95898 78.7451 1.97559 74.1016C0.719727 72.6387 0 70.582 0 68.46V61.8506C6.83984 69.5771 20.6055 74.748 36.8359 74.748ZM76.5195 43.4609C77.6758 45.7109 78.2988 48.1064 78.2988 50.6035C78.2988 51.5332 78.2051 52.4492 78.0381 53.3496H78.2988V55.2568C96.3008 54.0684 103.664 47.3242 106.517 43.1475C107.473 41.7471 107.999 39.9727 107.999 38.1504V30.7637C101.927 37.623 90.3896 42.4619 76.5195 43.4609ZM78.2998 86.3037V76.9609C94.8643 75.917 103.563 70.373 108 65.7031V71.4229C108 72.3623 107.86 73.2891 107.594 74.1592C107.343 74.9766 106.979 75.7422 106.517 76.4209C103.665 80.5977 96.3008 87.3418 78.2998 88.5293V86.623H78.2881C78.29 86.5166 78.2998 86.4111 78.2998 86.3037Z" transform="translate(0 0.499023)" fill="#2A355F"/>
</svg>
