<svg width="70" height="70" viewBox="0 0 70 70" fill="none" xmlns="http://www.w3.org/2000/svg">
<path fill-rule="evenodd" clip-rule="evenodd" d="M0 0H18V18H0V0Z" fill="#2A355F"/>
<path fill-rule="evenodd" clip-rule="evenodd" d="M0 0H18V18H0V0Z" transform="translate(0 26)" fill="#2A355F"/>
<path fill-rule="evenodd" clip-rule="evenodd" d="M0 0H18V18H0V0Z" transform="translate(0 52)" fill="#2A355F"/>
<path fill-rule="evenodd" clip-rule="evenodd" d="M0 0H18V18H0V0Z" transform="translate(26)" fill="#2A355F"/>
<path fill-rule="evenodd" clip-rule="evenodd" d="M0 0H18V18H0V0Z" transform="translate(26 26)" fill="#2A355F"/>
<path fill-rule="evenodd" clip-rule="evenodd" d="M0 0H18V18H0V0Z" transform="translate(26 52)" fill="#2A355F"/>
<path fill-rule="evenodd" clip-rule="evenodd" d="M0 0H18V18H0V0Z" transform="translate(52)" fill="#2A355F"/>
<path fill-rule="evenodd" clip-rule="evenodd" d="M0 0H18V18H0V0Z" transform="translate(52 26)" fill="#2A355F"/>
<path fill-rule="evenodd" clip-rule="evenodd" d="M0 0H18V18H0V0Z" transform="translate(52 52)" fill="#2A355F"/>
</svg>
