<svg width="50" height="50" viewBox="0 0 50 50" fill="none" xmlns="http://www.w3.org/2000/svg">
<path fill-rule="evenodd" clip-rule="evenodd" d="M0 1.04C0 0.465624 0.465624 0 1.04 0H48.4105C48.9849 0 49.4506 0.465624 49.4506 1.04V48.96C49.4506 49.5344 48.9849 50 48.4105 50H1.04C0.465625 50 0 49.5344 0 48.96V1.04ZM8.04688 12.6977C8.04688 12.4105 8.27969 12.1777 8.56687 12.1777H13.7733C14.0604 12.1777 14.2933 12.4105 14.2933 12.6977V40.546C14.2933 40.8332 14.0604 41.066 13.7733 41.066H8.56687C8.27969 41.066 8.04688 40.8332 8.04688 40.546V12.6977ZM21.6016 21.2407C21.6016 20.9535 21.8344 20.7207 22.1216 20.7207H27.3279C27.6151 20.7207 27.8479 20.9535 27.8479 21.2407V40.5463C27.8479 40.8334 27.6151 41.0663 27.3279 41.0663H22.1216C21.8344 41.0663 21.6016 40.8334 21.6016 40.5463V21.2407ZM35.1582 29.7973C35.1582 29.5102 35.391 29.2773 35.6782 29.2773H40.8846C41.1718 29.2773 41.4046 29.5102 41.4046 29.7973V40.5456C41.4046 40.8328 41.1718 41.0656 40.8846 41.0656H35.6782C35.391 41.0656 35.1582 40.8328 35.1582 40.5456V29.7973Z" fill="white"/>
</svg>
