<svg width="99" height="102" viewBox="0 0 99 102" fill="none" xmlns="http://www.w3.org/2000/svg">
<path fill-rule="evenodd" clip-rule="evenodd" d="M1.04004 0C0.46582 0 0 0.46582 0 1.04004V100.828C0 101.402 0.46582 101.868 1.04004 101.868H94.5488C95.124 101.868 95.5889 101.402 95.5889 100.828V84.8906H33.8213C33.2471 84.8906 32.7812 84.4248 32.7812 83.8506V18.0186C32.7812 17.7891 32.8555 17.5771 32.9814 17.4053C33.1709 17.1465 33.4766 16.9785 33.8213 16.9785H95.5889V1.04004C95.5889 0.46582 95.124 0 94.5488 0H1.04004ZM45.6943 27.5332C45.541 27.7148 45.4482 27.9492 45.4482 28.2051V73.6641C45.4482 74.2383 45.9141 74.7041 46.4883 74.7041H95.5889H97.126C97.7002 74.7041 98.166 74.2383 98.166 73.6641V28.2051C98.166 27.6309 97.7002 27.165 97.126 27.165H95.5889H46.4883C46.1699 27.165 45.8848 27.3076 45.6943 27.5332ZM58.6689 42.7046C58.6689 42.4174 58.9018 42.1846 59.1889 42.1846H74.3377C74.6249 42.1846 74.8577 42.4174 74.8577 42.7046V59.2173C74.8577 59.5045 74.6249 59.7373 74.3377 59.7373H59.1889C58.9018 59.7373 58.6689 59.5045 58.6689 59.2173V42.7046Z" fill="#2A355F"/>
</svg>
